HIERARCHY
ROOT hip
{
	OFFSET 0.000000 0.000000 0.000000
	CHANNELS 6 Xposition Yposition Zposition Zrotation Yrotation Xrotation 
	JOINT lhipjoint
	{
		OFFSET 0.000000 0.000000 0.000000
		CHANNELS 3 Zrotation Yrotation Xrotation
		JOINT lfemur
		{
			OFFSET 1.363060 -1.794630 0.839290
			CHANNELS 3 Zrotation Yrotation Xrotation
			JOINT ltibia
			{
				OFFSET 2.448110 -6.726130 0.000000
				CHANNELS 3 Zrotation Yrotation Xrotation
				JOINT lfoot
				{
					OFFSET 2.562200 -7.039590 0.000000
					CHANNELS 3 Zrotation Yrotation Xrotation
					JOINT ltoes
					{
						OFFSET 0.157640 -0.433110 2.322550
						CHANNELS 3 Zrotation Yrotation Xrotation
						End Site
						{
							OFFSET 0.000000 0.000000 0.000000
						}
					}
				}
			}
		}
	}
	JOINT rhipjoint
	{
		OFFSET 0.000000 0.000000 0.000000
		CHANNELS 3 Zrotation Yrotation Xrotation
		JOINT rfemur
		{
			OFFSET -1.305520 -1.794630 0.839290
			CHANNELS 3 Zrotation Yrotation Xrotation
			JOINT rtibia
			{
				OFFSET -2.542530 -6.985550 0.000000
				CHANNELS 3 Zrotation Yrotation Xrotation
				JOINT rfoot
				{
					OFFSET -2.568260 -7.056230 0.000000
					CHANNELS 3 Zrotation Yrotation Xrotation
					JOINT rtoes
					{
						OFFSET -0.164730 -0.452590 2.363150
						CHANNELS 3 Zrotation Yrotation Xrotation
						End Site
						{
							OFFSET 0.000000 0.000000 0.000000
						}
					}
				}
			}
		}
	}
	JOINT lowerback
	{
		OFFSET 0.000000 0.000000 0.000000
		CHANNELS 3 Zrotation Yrotation Xrotation
		JOINT upperback
		{
			OFFSET 0.028270 2.035590 -0.193380
			CHANNELS 3 Zrotation Yrotation Xrotation
			JOINT thorax
			{
				OFFSET 0.056720 2.048850 -0.042750
				CHANNELS 3 Zrotation Yrotation Xrotation
				JOINT lowerneck
				{
					OFFSET 0.000000 0.000000 0.000000
					CHANNELS 3 Zrotation Yrotation Xrotation
					JOINT upperneck
					{
						OFFSET -0.054170 1.746240 0.172020
						CHANNELS 3 Zrotation Yrotation Xrotation
						JOINT head
						{
							OFFSET 0.104070 1.761360 -0.123970
							CHANNELS 3 Zrotation Yrotation Xrotation
							End Site
							{
								OFFSET 0.000000 0.000000 0.000000
							}
						}
					}
				}
				JOINT lclavicle
				{
					OFFSET 0.000000 0.000000 0.000000
					CHANNELS 3 Zrotation Yrotation Xrotation
					JOINT lhumerus
					{
						OFFSET 3.362410 1.200890 -0.311210
						CHANNELS 3 Zrotation Yrotation Xrotation
						JOINT lradius
						{
							OFFSET 4.983000 -0.000000 -0.000000
							CHANNELS 3 Zrotation Yrotation Xrotation
							JOINT lwrist
							{
								OFFSET 3.483560 -0.000000 -0.000000
								CHANNELS 3 Zrotation Yrotation Xrotation
								JOINT lhand
								{
									OFFSET 0.000000 0.000000 0.000000
									CHANNELS 3 Zrotation Yrotation Xrotation
									JOINT lfingers
									{
										OFFSET 0.715260 -0.000000 -0.000000
										CHANNELS 3 Zrotation Yrotation Xrotation
										End Site
										{
											OFFSET 0.000000 0.000000 0.000000
										}
									}
								}
								JOINT lthumb
								{
									OFFSET 0.000000 0.000000 0.000000
									CHANNELS 3 Zrotation Yrotation Xrotation
									End Site
									{
										OFFSET 0.000000 0.000000 0.000000
									}
								}
							}
						}
					}
				}
				JOINT rclavicle
				{
					OFFSET 0.000000 0.000000 0.000000
					CHANNELS 3 Zrotation Yrotation Xrotation
					JOINT rhumerus
					{
						OFFSET -3.136600 1.374050 -0.404650
						CHANNELS 3 Zrotation Yrotation Xrotation
						JOINT rradius
						{
							OFFSET -5.241900 -0.000000 -0.000000
							CHANNELS 3 Zrotation Yrotation Xrotation
							JOINT rwrist
							{
								OFFSET -3.444170 -0.000000 -0.000000
								CHANNELS 3 Zrotation Yrotation Xrotation
								JOINT rhand
								{
									OFFSET 0.000000 0.000000 0.000000
									CHANNELS 3 Zrotation Yrotation Xrotation
									JOINT rfingers
									{
										OFFSET -0.622530 -0.000000 -0.000000
										CHANNELS 3 Zrotation Yrotation Xrotation
										End Site
										{
											OFFSET 0.000000 0.000000 0.000000
										}
									}
								}
								JOINT rthumb
								{
									OFFSET 0.000000 0.000000 0.000000
									CHANNELS 3 Zrotation Yrotation Xrotation
									End Site
									{
										OFFSET 0.000000 0.000000 0.000000
									}
								}
							}
						}
					}
				}
			}
		}
	}
}
MOTION
Frames: 10
Frame Time: 0.008333
2.372672 17.949623 3.126514 -177.618823 11.631591 -169.471055 4.614954 3.019139 -0.056649 -16.338715 -13.048859 -29.211400 6.398103 14.899372 47.589688 3.462538 -13.074836 -1.929892 0.025300 -1.027700 -2.825000 -6.716756 -4.817973 -0.724974 24.338651 -3.657682 -25.006400 -6.027647 -12.805254 40.556290 1.279603 32.762953 -4.773566 -0.663300 5.208800 -14.505100 9.328398 0.076988 2.545266 0.860510 -0.097815 -2.099613 -4.262592 1.617646 10.539278 -6.170500 -8.972418 -15.038475 7.148684 -12.789974 22.318609 1.659500 -5.869500 5.646600 0.838966 -6.876249 4.216742 -68.309434 -4.661210 42.461185 42.492238 -53.714799 -16.776640 1.409362 2.198692 13.400490 38.983023 -11.976155 -11.800300 -7.125000 0.000000 0.000000 6.950400 10.775500 -5.570600 0.887963 7.337622 4.848436 73.559096 -2.815452 23.744050 -18.548161 33.167996 -3.708808 -0.186666 -2.580789 1.575340 -6.977760 6.784091 -1.127300 7.125000 0.000000 0.000000 14.299400 -20.642200 8.608300 
2.346651 17.938112 3.125063 -177.421616 11.742745 -169.517639 4.619664 3.009581 -0.082270 -16.265104 -13.013665 -28.923854 6.367052 14.858958 47.454837 3.488613 -13.219477 -2.003473 0.021700 -0.951700 -2.616000 -6.774342 -4.805024 -0.692904 24.526168 -2.645302 -24.566403 -6.060128 -12.788214 40.584700 0.951783 31.716009 -5.824794 -0.682900 5.283500 -14.719100 9.348576 0.005013 2.532127 0.875974 -0.195740 -2.081649 -4.170676 1.591393 10.662302 -6.391614 -9.105622 -15.133880 7.427590 -13.077651 22.408349 1.790300 -6.009900 5.792000 0.823037 -6.910580 4.224040 -68.502607 -4.910854 42.354030 42.482466 -53.742233 -16.774408 1.427903 2.180480 13.921075 39.075198 -12.167598 -11.978200 -7.125000 0.000000 0.000000 6.976700 10.521200 -5.628400 0.900028 7.275070 4.851676 73.475945 -3.148302 23.180766 -18.563924 33.139794 -3.731590 -0.174523 -2.578346 1.566539 -6.990913 6.707805 -1.121900 7.125000 0.000000 0.000000 14.288300 -20.718800 8.575700 
2.320146 17.926407 3.123709 -177.228435 11.869682 -169.577857 4.629424 2.998687 -0.111890 -16.220828 -12.941431 -28.612429 6.329301 14.808477 47.287073 3.504612 -13.277686 -2.124096 0.022300 -0.963300 -2.647800 -6.836652 -4.783725 -0.652256 24.714321 -1.421292 -24.036374 -6.098797 -12.771146 40.622695 0.571195 30.437337 -7.146651 -0.724700 5.439500 -15.166500 9.369762 -0.054339 2.548874 0.882040 -0.273183 -2.064268 -4.157862 1.577774 10.761002 -6.529461 -9.225283 -15.216133 7.722480 -13.358941 22.502423 1.908200 -6.139100 5.933900 0.799032 -6.948086 4.230034 -68.555319 -5.140171 42.333918 42.520113 -53.781261 -16.798148 1.450891 2.152896 14.411420 39.189155 -12.448066 -12.222200 -7.125000 0.000000 0.000000 6.996800 10.163500 -5.696100 0.909394 7.227246 4.853094 73.481800 -3.516268 22.633717 -18.622741 33.166403 -3.764952 -0.157156 -2.584100 1.580756 -6.999132 6.597015 -1.113600 7.125000 0.000000 0.000000 14.278200 -20.821400 8.535000 
2.292964 17.914896 3.122645 -177.057525 12.013001 -169.608791 4.642085 2.986129 -0.147127 -16.208387 -12.858735 -28.333070 6.278226 14.749271 47.078389 3.513899 -13.314841 -2.180139 0.021300 -0.943100 -2.592300 -6.906252 -4.752184 -0.593362 24.890402 0.093233 -23.479232 -6.150560 -12.763635 40.700636 0.139010 28.906309 -8.806565 -0.809200 5.740600 -16.033500 9.343614 -0.116237 2.544237 0.885750 -0.352409 -2.046510 -4.147746 1.558492 10.871295 -6.622403 -9.342391 -15.319278 7.985925 -13.627348 22.575322 2.000500 -6.259500 6.062700 0.767273 -6.975061 4.230423 -68.486628 -5.368046 42.405185 42.664697 -53.866661 -16.880124 1.471346 2.129326 14.851853 39.279927 -12.640073 -12.394100 -7.125000 0.000000 0.000000 7.017400 9.916600 -5.748500 0.929440 7.182990 4.856572 73.464802 -3.856949 22.269472 -18.708568 33.217995 -3.808579 -0.140697 -2.606542 1.430077 -7.134433 6.464954 -1.123800 7.125000 0.000000 0.000000 14.184300 -20.924100 8.441200 
2.266750 17.904448 3.122065 -176.883140 12.146813 -169.661642 4.656968 2.971180 -0.186036 -16.196046 -12.759679 -28.041388 6.214368 14.679065 46.830086 3.516836 -13.343671 -2.149552 0.017200 -0.847600 -2.329600 -6.981615 -4.708406 -0.529640 25.092338 1.798503 -22.839831 -6.210718 -12.762544 40.808110 -0.313532 27.138838 -10.647980 -0.921600 6.116200 -17.122000 9.300138 -0.184977 2.579134 0.886245 -0.432233 -2.027281 -4.169515 1.537143 10.968022 -6.629622 -9.454862 -15.414185 8.221433 -13.883841 22.627169 2.061300 -6.369100 6.166900 0.734908 -6.994370 4.228981 -68.335113 -5.596778 42.502180 42.848271 -53.957895 -16.976197 1.494730 2.103456 15.301036 39.235578 -12.869801 -12.528000 -7.125000 0.000000 0.000000 6.943700 9.665800 -5.722600 0.956403 7.152414 4.863014 73.468525 -4.195171 22.041695 -18.818029 33.300942 -3.863991 -0.132063 -2.645237 1.187565 -7.408225 6.364011 -1.160000 7.125000 0.000000 0.000000 13.996700 -20.975700 8.305600 
2.241019 17.894291 3.122742 -176.750762 12.276245 -169.713257 4.674189 2.953924 -0.229784 -16.223218 -12.673020 -27.754435 6.139195 14.599871 46.547621 3.517502 -13.388635 -2.042375 0.010500 -0.660900 -1.816200 -7.057481 -4.652116 -0.458669 25.268296 3.660104 -22.186406 -6.280233 -12.775997 40.962907 -0.754254 25.182532 -12.567692 -1.071500 6.580300 -18.477900 9.185125 -0.256166 2.609392 0.882280 -0.508979 -2.003957 -4.187621 1.514593 11.088770 -6.610732 -9.561793 -15.521471 8.453542 -14.133942 22.664949 2.112100 -6.473000 6.259700 0.697862 -7.003856 4.226443 -68.125835 -5.882616 42.615730 42.986772 -54.019452 -17.043690 1.519721 2.072802 15.852603 39.169565 -13.081068 -12.635100 -7.125000 0.000000 0.000000 6.860700 9.448500 -5.683300 0.994630 7.116874 4.873131 73.464595 -4.527561 22.022555 -19.017147 33.465415 -3.949182 -0.123997 -2.706053 0.640085 -7.829961 6.269057 -1.220800 7.125000 0.000000 0.000000 13.712000 -20.994800 8.120500 
2.214320 17.886069 3.124580 -176.653994 12.349092 -169.788691 4.692375 2.935879 -0.273557 -16.293712 -12.607893 -27.455200 6.059689 14.513469 46.244528 3.510150 -13.372313 -1.953552 0.007900 -0.574700 -1.579100 -7.131374 -4.585534 -0.387574 25.425582 5.565470 -21.514694 -6.355860 -12.802655 41.160557 -1.154462 23.103181 -14.451683 -1.254600 7.101000 -20.015000 9.035965 -0.360493 2.681768 0.878471 -0.620766 -1.983079 -4.217838 1.470546 11.181029 -6.562387 -9.666828 -15.639863 8.654831 -14.367851 22.716521 2.141500 -6.565500 6.359200 0.663301 -7.012736 4.219948 -67.895535 -6.183338 42.707262 43.106190 -54.061449 -17.096041 1.548749 2.037525 16.496672 39.033744 -13.330371 -12.733500 -7.125000 0.000000 0.000000 6.726200 9.208500 -5.603000 1.028603 7.095307 4.881488 73.481076 -4.850255 22.062302 -19.227278 33.645437 -4.043181 -0.124534 -2.774807 0.059899 -8.341561 6.232003 -1.303400 7.125000 0.000000 0.000000 13.366000 -20.945000 7.919400 
2.187235 17.879588 3.128062 -176.602400 12.416533 -169.862676 4.709894 2.916698 -0.318145 -16.405475 -12.542986 -27.180341 5.974740 14.422932 45.925632 3.501030 -13.361661 -1.820263 0.006200 -0.506600 -1.392200 -7.200800 -4.510129 -0.311474 25.533241 7.518538 -20.874660 -6.437366 -12.847827 41.415582 -1.475328 20.995646 -16.064002 -1.394700 7.471500 -21.119900 8.811609 -0.475810 2.762919 0.873782 -0.741570 -1.964448 -4.220850 1.413271 11.245443 -6.532605 -9.750610 -15.697646 8.863695 -14.572843 22.742703 2.182600 -6.646300 6.429100 0.623921 -7.031941 4.216100 -67.638301 -6.432405 42.761174 43.300779 -54.143741 -17.193536 1.585405 1.995321 17.269626 38.838632 -13.655314 -12.852900 -7.125000 0.000000 0.000000 6.538600 8.897700 -5.485400 1.065922 7.077483 4.894189 73.499151 -5.203492 22.150159 -19.497973 33.870108 -4.155014 -0.123981 -2.846496 -0.528339 -8.878429 6.202692 -1.392500 7.125000 0.000000 0.000000 13.001500 -20.882600 7.710600 
2.160827 17.875622 3.132899 -176.634356 12.479196 -170.019740 4.728000 2.898652 -0.363703 -16.618212 -12.469369 -26.832377 5.891270 14.326403 45.604961 3.488332 -13.320533 -1.708931 0.005700 -0.488900 -1.343300 -7.263449 -4.422476 -0.247210 25.566134 9.433801 -20.190964 -6.527770 -12.912690 41.738213 -1.720374 18.814667 -17.433977 -1.489000 7.709000 -21.833500 8.470086 -0.602322 2.937253 0.863526 -0.854767 -1.941753 -4.203776 1.352324 11.293121 -6.496322 -9.840944 -15.764692 9.073481 -14.784496 22.764137 2.215700 -6.727400 6.503100 0.583477 -7.054692 4.210473 -67.325213 -6.700983 42.824301 43.524000 -54.238602 -17.307293 1.631056 1.941994 18.175447 38.616657 -14.081941 -13.022200 -7.125000 0.000000 0.000000 6.312300 8.479500 -5.346000 1.099485 7.065475 4.903828 73.576202 -5.541026 22.136168 -19.767728 34.091447 -4.266949 -0.126398 -2.911654 -1.002767 -9.372677 6.214022 -1.481500 7.125000 0.000000 0.000000 12.663800 -20.786800 7.528200 
2.136160 17.874751 3.138993 -176.749882 12.560059 -170.218277 4.746017 2.882942 -0.411265 -16.922848 -12.358861 -26.466408 5.810222 14.229422 45.290296 3.477822 -13.288655 -1.616965 0.006900 -0.536400 -1.473900 -7.319005 -4.326974 -0.183333 25.516920 11.351907 -19.547493 -6.631089 -13.003872 42.151325 -1.882753 16.642725 -18.519448 -1.566000 7.896700 -22.400600 7.993415 -0.735759 3.151300 0.848766 -0.962793 -1.917345 -4.145581 1.282935 11.327492 -6.471528 -9.925432 -15.808614 9.279702 -14.982463 22.788149 2.247200 -6.801700 6.568600 0.541167 -7.079354 4.203948 -66.946143 -7.020756 42.929789 43.719708 -54.318248 -17.408635 1.679651 1.882070 19.104896 38.467003 -14.536300 -13.237600 -7.125000 0.000000 0.000000 6.124000 8.012500 -5.241400 1.133682 7.054672 4.914882 73.670146 -5.873472 22.115513 -20.049723 34.318430 -4.383207 -0.136929 -2.972124 -1.437332 -9.867437 6.304038 -1.583500 7.125000 0.000000 0.000000 12.326200 -20.616500 7.366400 
